<svg id="Layer_1" data-name="Layer 1" xmlns="http://www.w3.org/2000/svg" viewBox="0 0 465.45 535.99"><defs><style>.cls-1{fill:#d7d7d7;}.cls-1,.cls-2{stroke:#fee900;stroke-miterlimit:10;stroke-width:2px;}.cls-2{fill:#fee900;}</style></defs><title>newlogoyellow</title><path class="cls-1" d="M497.62,170.84h-2.77q-50.94,0-101.88,0a4.15,4.15,0,0,0-3.8,1.79q-40.85,55.11-81.78,110.15L185.76,446.39c-.68.93-1.39,1.84-2.52,3.33V171H69.36V154.22h130.5V398l.84.6a5.31,5.31,0,0,1,.51-1.35q83.25-112,166.54-224.07c4.37-5.88,8.7-11.79,13.16-17.6a4.09,4.09,0,0,1,2.84-1.48q72-.12,144.09-.06c.42,0,.83.06,1.62.11-.47.81-.79,1.43-1.19,2Q462.74,252.06,397.18,348c-5.89,8.62-11.74,17.27-17.73,25.82-1.07,1.52-.82,2.63-.12,4.1q23.6,49.39,47.14,98.82,46.41,97.37,92.81,194.73l7.79,16.3c-1.09.07-1.87.16-2.66.16q-70.53,0-141.06,0a3.25,3.25,0,0,1-3.43-2.14q-33-66.74-66.1-133.42-11.2-22.6-22.36-45.24c-.41-.82-.85-1.62-1.41-2.69-.65.75-1.21,1.32-1.69,1.95Q244,565.05,199.69,623.73a7.28,7.28,0,0,0-1.34,4.12q-.14,28.56,0,57.13c0,2.25-.5,3-2.9,3q-61.69-.12-123.37,0c-2.28,0-3.07-.54-3-2.92.19-4.61.06-9.23.06-14H181.29v-3.08c0-15.16,0-30.33.06-45.5a8.19,8.19,0,0,1,1.49-4.56q54.33-72,108.79-143.91c.36-.47.75-.9,1.42-1.69.57,1.12,1.06,2,1.52,3q35.12,70.9,70.21,141.8,12.87,26,25.73,52a2.75,2.75,0,0,0,2.82,1.9q52.71-.08,105.42,0c.33,0,.66-.06,1.23-.12-.26-.7-.42-1.32-.69-1.89q-44.24-92.8-88.49-185.6Q385.45,430.14,360.06,377a4.64,4.64,0,0,1,.39-5.39q68.12-99.52,136.12-199.14C496.84,172.05,497.1,171.64,497.62,170.84Z" transform="translate(-65.68 -152.99)"/><path class="cls-2" d="M497.62,170.84h-2.77q-50.94,0-101.88,0a4.15,4.15,0,0,0-3.8,1.79q-40.85,55.11-81.78,110.15L185.76,446.39c-.68.93-1.39,1.84-2.52,3.33V171H69.36V154.22h130.5V398l.84.6a5.31,5.31,0,0,1,.51-1.35q83.25-112,166.54-224.07c4.37-5.88,8.7-11.79,13.16-17.6a4.09,4.09,0,0,1,2.84-1.48q72-.12,144.09-.06c.42,0,.83.06,1.62.11-.47.81-.79,1.43-1.19,2Q462.74,252.06,397.18,348c-5.89,8.62-11.74,17.27-17.73,25.82-1.07,1.52-.82,2.63-.12,4.1q23.6,49.39,47.14,98.82,46.41,97.37,92.81,194.73l7.79,16.3c-1.09.07-1.87.16-2.66.16q-70.53,0-141.06,0a3.25,3.25,0,0,1-3.43-2.14q-33-66.74-66.1-133.42-11.2-22.6-22.36-45.24c-.41-.82-.85-1.62-1.41-2.69-.65.75-1.21,1.32-1.69,1.95Q244,565.05,199.69,623.73a7.28,7.28,0,0,0-1.34,4.12q-.14,28.56,0,57.13c0,2.25-.5,3-2.9,3q-61.69-.12-123.37,0c-2.28,0-3.07-.54-3-2.92.19-4.61.06-9.23.06-14H181.29v-3.08c0-15.16,0-30.33.06-45.5a8.19,8.19,0,0,1,1.49-4.56q54.33-72,108.79-143.91c.36-.47.75-.9,1.42-1.69.57,1.12,1.06,2,1.52,3q35.12,70.9,70.21,141.8,12.87,26,25.73,52a2.75,2.75,0,0,0,2.82,1.9q52.71-.08,105.42,0c.33,0,.66-.06,1.23-.12-.26-.7-.42-1.32-.69-1.89q-44.24-92.8-88.49-185.6Q385.45,430.14,360.06,377a4.64,4.64,0,0,1,.39-5.39q68.12-99.52,136.12-199.14C496.84,172.05,497.1,171.64,497.62,170.84Z" transform="translate(-65.68 -152.99)"/><path class="cls-2" d="M128.78,388.15h-59v-10l13.56-3.65A13.41,13.41,0,0,0,82.08,373c-9.74-8.83-14.69-19.95-15.32-33.41-.53-11.43,1.32-22.11,7.21-31.89,6.86-11.4,17.18-17.66,29.34-20.66,18.11-4.45,36-3.83,53,4.93,18.46,9.54,28.38,28.55,26.8,49.91-.53,7.16-1.64,14.12-4.43,20.7-6,14.3-17.22,21.22-31.81,23.84,0-4.95,0-9.73,0-14.51a1.92,1.92,0,0,1,1.17-1.37c16.77-4,22.25-19.05,21.56-34.46-.68-15.18-8.38-25.8-21.68-31.1-16.2-6.46-32.77-6.09-49,.62-12.25,5.07-18.2,15-19.11,28.41-.5,7.28.22,14.41,3.24,21.12,5.16,11.47,14.38,16.63,26,18,2.26.27,4.55.39,7.13.61V337.69h12.58Z" transform="translate(-65.68 -152.99)"/><path class="cls-2" d="M69.42,154.22H184.9v44.09c0,24.92-12.42,41.36-36.79,47.28-20,4.87-39.6,3-57.84-7.16C77,231,69.92,219.25,69.39,204.25c-.58-16.35-.16-32.75-.16-49.12A5.11,5.11,0,0,1,69.42,154.22Zm102,16H83a5.06,5.06,0,0,0-.23,1c0,9.34-.12,18.69,0,28,.19,14.61,7.78,24.06,21.3,28.76a69.25,69.25,0,0,0,47.48-.37c10.67-3.87,17.72-11.48,18.8-22.84S171.15,181.84,171.44,170.19Z" transform="translate(-65.68 -152.99)"/><path class="cls-2" d="M69.15,600.18c0-5.68-.07-10.91.1-16.13,0-.67,1.19-1.61,2-1.91C81.13,578.56,91,575,101,571.6c1.71-.58,2.25-1.34,2.24-3.17q-.12-20,0-40.06c0-2-.7-2.73-2.43-3.34-9.72-3.48-19.39-7.13-29.13-10.58-1.85-.66-2.64-1.47-2.56-3.55.17-4.35,0-8.71,0-13.49,1.17.37,2,.59,2.91.92Q126.19,519,180.34,539.57a3,3,0,0,1,2.28,3.44c-.14,4.27-.15,8.55,0,12.82.08,1.93-.6,2.72-2.35,3.37Q129.15,578,78.05,596.93C75.27,598,72.48,599,69.15,600.18Zm46.76-69.54v35.61l49.35-17.51Z" transform="translate(-65.68 -152.99)"/><path class="cls-2" d="M169.13,478h-3.87q-46.47,0-92.94,0c-2.51,0-3.36-.61-3.22-3.13.21-4,.06-8.07.06-12.41H169v-37.4h13.6v90.13h-13.5Z" transform="translate(-65.68 -152.99)"/><path class="cls-2" d="M82.46,617.3V675H69.09V601.63h112.2V617.3Z" transform="translate(-65.68 -152.99)"/><path class="cls-2" d="M69.09,275.76V260.09H184.74v15.67Z" transform="translate(-65.68 -152.99)"/><path class="cls-2" d="M184.91,404.86v15.66H69.09V404.86Z" transform="translate(-65.68 -152.99)"/></svg>